<?xml version="1.0" encoding="UTF-8"?>
<svg xmlns="http://www.w3.org/2000/svg" version="1.1" width="150" height="150" viewBox="0 0 150 150"><rect x="0" y="0" width="150" height="150" fill="#ffffff"/><g transform="scale(6)"><g transform="translate(0,0)"><path fill-rule="evenodd" d="M8 0L8 4L9 4L9 5L8 5L8 7L9 7L9 6L10 6L10 9L11 9L11 10L8 10L8 9L7 9L7 8L4 8L4 9L5 9L5 10L6 10L6 11L7 11L7 10L8 10L8 11L9 11L9 12L10 12L10 11L11 11L11 12L13 12L13 11L12 11L12 10L14 10L14 9L15 9L15 11L17 11L17 10L18 10L18 9L17 9L17 5L16 5L16 4L15 4L15 5L14 5L14 3L11 3L11 2L9 2L9 0ZM10 0L10 1L13 1L13 2L15 2L15 1L16 1L16 0L15 0L15 1L13 1L13 0ZM16 2L16 3L17 3L17 2ZM10 4L10 5L11 5L11 8L12 8L12 6L13 6L13 9L14 9L14 8L15 8L15 9L16 9L16 10L17 10L17 9L16 9L16 8L15 8L15 7L16 7L16 5L15 5L15 7L14 7L14 6L13 6L13 5L11 5L11 4ZM0 8L0 14L2 14L2 16L0 16L0 17L4 17L4 15L5 15L5 14L6 14L6 15L10 15L10 16L11 16L11 19L10 19L10 17L9 17L9 16L8 16L8 18L9 18L9 19L8 19L8 21L9 21L9 22L10 22L10 23L8 23L8 25L10 25L10 24L11 24L11 23L12 23L12 24L13 24L13 23L12 23L12 21L13 21L13 22L14 22L14 24L16 24L16 23L15 23L15 21L13 21L13 19L14 19L14 20L16 20L16 22L17 22L17 21L18 21L18 23L17 23L17 24L18 24L18 25L19 25L19 24L22 24L22 25L25 25L25 24L24 24L24 22L25 22L25 21L24 21L24 20L25 20L25 19L22 19L22 18L23 18L23 16L24 16L24 15L23 15L23 14L24 14L24 13L25 13L25 12L24 12L24 11L23 11L23 10L24 10L24 9L25 9L25 8L21 8L21 9L20 9L20 8L19 8L19 10L20 10L20 11L22 11L22 12L21 12L21 13L19 13L19 11L18 11L18 13L19 13L19 14L18 14L18 15L17 15L17 14L16 14L16 12L14 12L14 13L13 13L13 14L14 14L14 13L15 13L15 16L14 16L14 18L12 18L12 17L13 17L13 15L12 15L12 13L10 13L10 14L6 14L6 13L8 13L8 12L5 12L5 13L4 13L4 14L3 14L3 12L2 12L2 13L1 13L1 11L3 11L3 9L2 9L2 8ZM1 9L1 10L2 10L2 9ZM6 9L6 10L7 10L7 9ZM22 9L22 10L23 10L23 9ZM21 13L21 14L20 14L20 15L19 15L19 16L21 16L21 14L23 14L23 13ZM10 14L10 15L11 15L11 16L12 16L12 15L11 15L11 14ZM6 16L6 17L7 17L7 16ZM15 16L15 17L16 17L16 16ZM17 17L17 20L20 20L20 17ZM21 17L21 18L22 18L22 17ZM15 18L15 19L16 19L16 18ZM18 18L18 19L19 19L19 18ZM9 20L9 21L10 21L10 22L11 22L11 21L12 21L12 20ZM21 20L21 21L19 21L19 23L18 23L18 24L19 24L19 23L23 23L23 22L21 22L21 21L22 21L22 20ZM0 0L0 7L7 7L7 0ZM1 1L1 6L6 6L6 1ZM2 2L2 5L5 5L5 2ZM18 0L18 7L25 7L25 0ZM19 1L19 6L24 6L24 1ZM20 2L20 5L23 5L23 2ZM0 18L0 25L7 25L7 18ZM1 19L1 24L6 24L6 19ZM2 20L2 23L5 23L5 20Z" fill="#000000"/></g></g></svg>
